<?xml version="1.0" standalone="no"?>
<!DOCTYPE svg PUBLIC "-//W3C//DTD SVG 1.1//EN" "http://www.w3.org/Graphics/SVG/1.1/DTD/svg11.dtd" >
<!--
2013-9-30: Created.
-->
<svg>
<metadata>
Created by iconfont
</metadata>
<defs>

<font id="iconfont" horiz-adv-x="1024" >
  <font-face
    font-family="iconfont"
    font-weight="500"
    font-stretch="normal"
    units-per-em="1024"
    ascent="896"
    descent="-128"
  />
    <missing-glyph />
    
    <glyph glyph-name="time" unicode="&#58882;" d="M512 832C264.6 832 64 631.4 64 384s200.6-448 448-448 448 200.6 448 448S759.4 832 512 832z m0-834.2c-213.3 0-386.2 172.9-386.2 386.2 0 213.3 172.9 386.2 386.2 386.2 213.3 0 386.2-172.9 386.2-386.2 0-213.3-172.9-386.2-386.2-386.2zM527.4 414.9V615.7c0 17.1-13.8 30.9-30.9 30.9-17.1 0-30.9-13.8-30.9-30.9v-216.2c0-25.7 20.8-46.4 46.4-46.4h216.2c17.1 0 30.9 13.8 30.9 30.9s-13.8 30.9-30.9 30.9H527.4z"  horiz-adv-x="1024" />

    
    <glyph glyph-name="hide" unicode="&#58883;" d="M956.5 513.4s12.1 19.2-9 35.2c-23.9 18.1-38.9-5.8-38.9-5.8-51.6-74.9-209.4-129.5-396.3-129.5S167.6 468 116 542.8c0 0-15 24.9-38.7 9.5-23.9-15.5-8.7-39.3-8.7-39.3 28.1-39.5 76.3-73.7 137.3-100.6L130.4 338c-8.4-8.4-8.5-22-0.1-30.4l10.9-10.9c8.4-8.3 22.2-8.5 30.6-0.1l94.8 93.1c31.6-10 64.9-18.6 100.8-24.5L311.9 269c-5.9-10.2-2.4-23.5 7.9-29.5l13.3-7.7c10.2-5.9 23.6-2.4 29.5 7.9l67.8 117.6c26.8-2.4 54-3.9 82.1-3.9 0.8 0 1.7 0.1 2.5 0.1v-121.2c0-11.9 9.7-21.6 21.6-21.6h15.3c11.9 0 21.6 9.7 21.6 21.6v122c0 0.6-0.3 1.1-0.3 1.6 29.2 1.9 57.8 4.8 85 9.3L726 246.5c5.9-10.4 19.2-13.9 29.4-8l13.3 7.7c10.2 5.9 13.9 19.2 8 29.6 0 0-39.5 69.2-58.4 102.2 30 7.5 57.7 16.7 83.7 27.2 0.3-0.4 0.2-1.1 0.6-1.5l95-95.2c8.4-8.5 22.1-8.5 30.5 0l10.9 10.9c8.4 8.4 8.4 22.1 0 30.5l-81.4 81.6c42.7 23.5 77.2 51 98.9 81.9"  horiz-adv-x="1024" />

    
    <glyph glyph-name="verification" unicode="&#58884;" d="M690.3 472.3L500.5 263.1c-4.7-6.1-11.7-10.1-19.4-10.9-0.8-0.1-1.7-0.1-2.6-0.1-6.9 0-13.8 2.5-18.7 6.7l-122 106.4c-11.8 10.1-13.2 27.9-3.2 39.7 5.3 6.2 13.1 9.9 21.4 9.9 6.7 0 13.2-2.4 18.3-6.7l99.3-87 171.8 185.6c9.4 12.3 27 14.7 39.5 5.1 6-4.6 9.9-11.2 10.8-18.6 1.1-7.5-0.8-15-5.4-20.9zM860.8 701.9h-0.1c-4 0.4-16.4 2.1-31.3 4.7-24.8 4.4-51.6 10.3-79.5 18.1-78.7 21.9-150 53.6-205.8 96.4-18.8 14.6-45.2 14.6-64.1-0.1-95.5-73.2-231-111-316.6-119.1-27.9-2.8-48.3-26.6-48.3-54.5 0-20.1 1.5-52.7 5.8-94.3 7.1-67.7 19.7-137.4 39.3-205.6 26.6-92.8 63.7-172.7 110.3-237.3 58.1-80.5 139.8-139.8 231.9-171l9.6-3.2 9.6 3.2c92.3 31.3 173.9 90.4 232 171 46.6 64.5 83.6 144.3 110.3 237.2 19.6 68.2 32.2 137.9 39.3 205.6 4.3 41.6 5.9 74.5 5.9 94.3 0 27.9-20.4 51.8-48.3 54.6zM806.5 364c-24.9-86.6-59-160.2-101.3-218.8-48.7-67.6-116.4-118-193.2-146.1-76.7 28.1-144.5 78.5-193.2 146.1-42.4 58.7-76.5 132.3-101.4 218.8-31.3 108.9-42.4 210.9-42.8 279.2 24 2.9 68.3 11.1 115.8 24.4 83.7 23.3 160 56.9 221.6 103 62-46.4 138.3-80.1 221.8-103.3 47.4-13.2 90.8-21.2 115.4-24.1-0.4-68.1-11.5-170.4-42.7-279.2z"  horiz-adv-x="1024" />

    
    <glyph glyph-name="password" unicode="&#58881;" d="M608 320c17.7 0 32-14.3 32-32s-14.3-32-32-32H416c-17.7 0-32 14.3-32 32s14.3 32 32 32h192zM832 512h-64V704c0 70.7-57.3 128-128 128H384c-70.7 0-128-57.3-128-128v-192h-64c-70.7 0-128-57.3-128-128v-320c0-70.7 57.3-128 128-128h640c70.7 0 128 57.3 128 128V384c0 70.7-57.3 128-128 128zM320 704c0 35.3 28.7 64 64 64h256c35.3 0 64-28.7 64-64v-192H320V704z m576-640c0-35.3-28.7-64-64-64H192c-35.3 0-64 28.7-64 64V384c0 35.3 28.7 64 64 64h640c35.3 0 64-28.7 64-64v-320z"  horiz-adv-x="1024" />

    
    <glyph glyph-name="date" unicode="&#58885;" d="M896 768H768V800c0 17.7-14.3 32-32 32s-32-14.3-32-32v-32H320V800c0 17.7-14.3 32-32 32s-32-14.3-32-32v-32H128c-35.3 0-64-28.7-64-64v-704c0-35.3 28.7-64 64-64h768c35.3 0 64 28.7 64 64V704c0 35.3-28.7 64-64 64z m0-768H128V448h768v-448z m0 512H128V704h128v-96c0-17.7 14.3-32 32-32s32 14.3 32 32v96h384v-96c0-17.7 14.3-32 32-32s32 14.3 32 32v96h128v-192zM800 128c17.7 0 32-14.3 32-32s-14.3-32-32-32h-64c-17.7 0-32 14.3-32 32s14.3 32 32 32h64zM800 256c17.7 0 32-14.3 32-32s-14.3-32-32-32h-64c-17.7 0-32 14.3-32 32s14.3 32 32 32h64zM800 384c17.7 0 32-14.3 32-32s-14.3-32-32-32h-64c-17.7 0-32 14.3-32 32s14.3 32 32 32h64zM544 128c17.7 0 32-14.3 32-32s-14.3-32-32-32h-64c-17.7 0-32 14.3-32 32s14.3 32 32 32h64zM544 256c17.7 0 32-14.3 32-32s-14.3-32-32-32h-64c-17.7 0-32 14.3-32 32s14.3 32 32 32h64zM544 384c17.7 0 32-14.3 32-32s-14.3-32-32-32h-64c-17.7 0-32 14.3-32 32s14.3 32 32 32h64zM288 128c17.7 0 32-14.3 32-32s-14.3-32-32-32h-64c-17.7 0-32 14.3-32 32s14.3 32 32 32h64zM288 256c17.7 0 32-14.3 32-32s-14.3-32-32-32h-64c-17.7 0-32 14.3-32 32s14.3 32 32 32h64zM288 384c17.7 0 32-14.3 32-32s-14.3-32-32-32h-64c-17.7 0-32 14.3-32 32s14.3 32 32 32h64z"  horiz-adv-x="1024" />

    
    <glyph glyph-name="Collapse" unicode="&#58886;" d="M133.5 151.6c-15.9-15.9-41.7-15.9-57.6 0-15.9 15.9-15.9 41.7 0 57.6l407.3 407.3c15.9 15.9 41.7 15.9 57.6 0l407.3-407.3c15.9-15.9 15.9-41.7 0-57.6-15.9-15.9-41.7-15.9-57.6 0L512 530 133.5 151.6z"  horiz-adv-x="1024" />

    
    <glyph glyph-name="edit" unicode="&#58887;" d="M428 272c-7.2 0-14.3 2.7-19.8 8.2-10.9 11-10.9 28.7 0 39.6l504 504c11 10.9 28.7 10.9 39.6 0 10.9-11 10.9-28.7 0-39.6l-504-504c-5.5-5.5-12.6-8.2-19.8-8.2zM148-64c-46.3 0-84 37.7-84 84V692c0 46.3 37.7 84 84 84h504c15.5 0 28-12.5 28-28s-12.5-28-28-28H148c-15.4 0-28-12.6-28-28v-672c0-15.4 12.6-28 28-28h616c15.4 0 28 12.6 28 28V402.1c0 15.5 12.5 28 28 28s28-12.5 28-28V20c0-46.3-37.7-84-84-84H148z"  horiz-adv-x="1024" />

    
    <glyph glyph-name="close" unicode="&#58888;" d="M512 441.6L890.5 820.1c15.9 15.9 41.7 15.9 57.6 0 15.9-15.9 15.9-41.7 0-57.6L569.6 384l378.5-378.5c15.9-15.9 15.9-41.7 0-57.6-15.9-15.9-41.7-15.9-57.6 0L512 326.4 133.5-52.1c-15.9-15.9-41.7-15.9-57.6 0-15.9 15.9-15.9 41.7 0 57.6L454.4 384 75.9 762.5C60 778.4 60 804.2 75.9 820.1c15.9 15.9 41.7 15.9 57.6 0L512 441.6z"  horiz-adv-x="1024" />

    
    <glyph glyph-name="return" unicode="&#58889;" d="M744.4 5.5c15.9-15.9 15.9-41.7 0-57.6-15.9-15.9-41.7-15.9-57.6 0L279.6 355.2c-15.9 15.9-15.9 41.7 0 57.6L686.8 820.1c15.9 15.9 41.7 15.9 57.6 0 15.9-15.9 15.9-41.7 0-57.6L366 384l378.4-378.5z"  horiz-adv-x="1024" />

    
    <glyph glyph-name="drop_down" unicode="&#58890;" d="M890.5 616.4c15.9 15.9 41.7 15.9 57.6 0 15.9-15.9 15.9-41.7 0-57.6L540.8 151.60000000000002c-15.9-15.9-41.7-15.9-57.6 0L75.9 558.8c-15.9 15.9-15.9 41.7 0 57.6 15.9 15.9 41.7 15.9 57.6 0L512 238l378.5 378.4z"  horiz-adv-x="1024" />

    
    <glyph glyph-name="delete" unicode="&#58891;" d="M932 664H792v56c0 61.8-50.2 112-112 112H344c-61.8 0-112-50.2-112-112v-56H92c-15.5 0-28-12.5-28-28s12.5-28 28-28h840c15.5 0 28 12.5 28 28s-12.5 28-28 28z m-196 0H288v56c0 30.9 25.1 56 56 56h336c30.9 0 56-25.1 56-56v-56zM456 132c0-15.5-12.5-28-28-28s-28 12.5-28 28V412c0 15.5 12.5 28 28 28s28-12.5 28-28v-280zM624 132c0-15.5-12.5-28-28-28s-28 12.5-28 28V412c0 15.5 12.5 28 28 28s28-12.5 28-28v-280zM820 552c15.5 0 28-12.5 28-28v-476c0-61.8-50.2-112-112-112H288c-61.8 0-112 50.2-112 112V524c0 15.5 12.5 28 28 28s28-12.5 28-28v-476c0-30.9 25.1-56 56-56h448c30.9 0 56 25.1 56 56V524c0 15.5 12.5 28 28 28z"  horiz-adv-x="1024" />

    
    <glyph glyph-name="get-into" unicode="&#58892;" d="M279.6 762.5c-15.9 15.9-15.9 41.7 0 57.6 15.9 15.9 41.7 15.9 57.6 0l407.3-407.3c15.9-15.9 15.9-41.7 0-57.6L337.2-52.1c-15.9-15.9-41.7-15.9-57.6 0-15.9 15.9-15.9 41.7 0 57.6L658 384 279.6 762.5z"  horiz-adv-x="1024" />

    
    <glyph glyph-name="search" unicode="&#58893;" d="M950.6-9.3L741 200.2c56.7 66.9 91 153.3 91 247.8 0 212-172 384-384 384S64 660 64 448s172-384 384-384c94.5 0 180.9 34.3 247.8 90.9l209.5-209.6c6.3-6.2 14.5-9.3 22.7-9.3s16.4 3.1 22.7 9.3c12.4 12.6 12.4 32.8-0.1 45.4zM448 128c-176.4 0-320 143.5-320 320s143.5 320 320 320 320-143.5 320-320-143.6-320-320-320z"  horiz-adv-x="1024" />

    
    <glyph glyph-name="Upload" unicode="&#58894;" d="M541.9 62.9V242.1h119.5L512 421.3 362.7 242.1h119.5v-179.2H288c-123.7 0-224 100.3-224 224s100.3 224 224 224h2C304.6 620.5 398.4 705 512 705s207.4-84.5 222-194.1h2c123.7 0 224-100.3 224-224s-100.3-224-224-224H541.9z"  horiz-adv-x="1024" />

    
    <glyph glyph-name="zip" unicode="&#58895;" d="M915.2-34.1H108.8C84.2-34.1 64-15 64 8.2V264.5h896v-256.4c0-23.1-20.2-42.2-44.8-42.2M108.8 802.1h806.4c24.6 0 44.8-19.1 44.8-42.3v-256.4H64V759.8c0 23.2 20.2 42.3 44.8 42.3M64 503.5h896v-238.9H64zM302.9 802.1H721v-836.3H302.9zM422.4 682.7H512v59.7h-89.6v-59.7z m89.6 59.7h89.6V802.1H512v-59.7z m0-119.5h89.6v59.7H512v-59.7z m-89.6-59.7H512v59.7h-89.6v-59.7z m89.6-59.7h89.6v59.7H512v-59.7z m-89.6-59.8H512v59.7h-89.6v-59.7zM512 384h89.6v59.7H512V384z m-89.6-59.7H512V384h-89.6v-59.7zM512 25.6h89.6v59.7H512v-59.7z m-89.6-59.7H512v59.7h-89.6v-59.7zM512 264.5h89.6v59.7H512v-59.7z m-89.6-59.7H512v59.7h-89.6v-59.7z m89.6-59.7h89.6v59.7H512v-59.7z m-89.6-59.8H512V145h-89.6v-59.7z"  horiz-adv-x="1024" />

    
    <glyph glyph-name="file" unicode="&#58896;" d="M183.5 832c-11.2 0-23.1-4.5-31.4-13.4-8.2-9-13.4-20.2-13.4-31.4v-806.4c0-11.2 4.5-23.1 13.4-31.4 9-9 20.2-13.4 31.4-13.4h657.1c11.2 0 23.1 4.5 31.4 13.4 9 9 13.4 20.2 13.4 31.4V578.1L631.5 832h-448zM885.3 578.1h-209c-11.2 0-23.1 4.5-31.4 13.4-9 8.2-13.4 20.2-13.4 31.4V832l253.8-253.9zM312.9 533.3h149.3c13.7 0 24.9-11.1 24.9-24.9 0-13.7-11.1-24.9-24.9-24.9H312.9c-13.7 0-24.9 11.1-24.9 24.9 0 13.8 11.1 24.9 24.9 24.9zM312.9 334.2h398.2c13.7 0 24.9-11.1 24.9-24.9 0-13.7-11.1-24.9-24.9-24.9H312.9c-13.7 0-24.9 11.1-24.9 24.9 0 13.8 11.1 24.9 24.9 24.9zM312.9 135.1h398.2c13.7 0 24.9-11.1 24.9-24.9s-11.1-24.9-24.9-24.9H312.9c-13.7 0-24.9 11.1-24.9 24.9s11.1 24.9 24.9 24.9z"  horiz-adv-x="1024" />

    
    <glyph glyph-name="image" unicode="&#58897;" d="M183.5 832c-11.2 0-23.1-4.5-31.4-13.4-8.2-9-13.4-20.2-13.4-31.4v-806.4c0-11.2 4.5-23.1 13.4-31.4 9-9 20.2-13.4 31.4-13.4h657.1c11.2 0 23.1 4.5 31.4 13.4 9 9 13.4 20.2 13.4 31.4V578.1L631.5 832h-448zM885.3 578.1h-209c-11.2 0-23.1 4.5-31.4 13.4-9 8.2-13.4 20.2-13.4 31.4V832l253.8-253.9zM742 203.3l-93.3 144.9c-3 4.5-7.5 6.7-12.7 6.7-5.2 0-9.7-3-12.7-6.7l-50-77.7-112 181.4c-3 4.5-7.5 6.7-12.7 6.7-5.2 0-9.7-3-12.7-6.7L282 203.3c-3-4.5-3-10.5 0-14.9 3-5.2 7.5-7.5 12.7-7.5h434.6c5.2 0 10.5 3 13.4 7.5 2.3 5.2 2.3 11.2-0.7 14.9M615 477.3c0-20.6 16.7-37.3 37.3-37.3 20.6 0 37.3 16.7 37.3 37.3s-16.7 37.3-37.3 37.3c-20.5 0.1-37.3-16.7-37.3-37.3"  horiz-adv-x="1024" />

    
    <glyph glyph-name="excel" unicode="&#58898;" d="M184 831.2c-11.2 0-23.1-4.5-31.4-13.4-8.2-9-13.4-20.2-13.4-31.4V-20c0-11.2 4.5-23.1 13.4-31.4 9-9 20.2-13.4 31.4-13.4h657c11.2 0 23.1 4.5 31.4 13.4 9 9 13.4 20.2 13.4 31.4V577.4L632 831.2H184zM885.8 577.4h-209c-11.2 0-23.1 4.5-31.4 13.4-9 8.2-13.4 20.2-13.4 31.4v209l253.8-253.8zM478.2 359.3L376.6 501.2h70.2l66.4-101.5 69.5 101.5h67.9L546.8 359.3l109.1-150.8h-71L511.8 316l-73.2-108.2h-69.5z"  horiz-adv-x="1024" />

    
    <glyph glyph-name="lock" unicode="&#58899;" d="M809.7 401.7h-54V587.3C755.8 723.5 647.3 832 511.7 832c-135.5 0-244.1-108.5-244.1-244.7v-185.6h-54c-29.5 0-54-24.4-54-54V-10c0-29.5 24.4-54 54-54h596c30.2 0 54.6 24.4 54.6 54V347.7c0.1 29.6-24.3 54-54.5 54z m-135.5 0h-325V587.3c0 89.9 73.2 163.1 162.5 163.1 89.8-0.3 162.5-73.3 162.5-163.1v-185.6z"  horiz-adv-x="1024" />

    
    <glyph glyph-name="word" unicode="&#58900;" d="M184 831.2c-11.2 0-23.1-4.5-31.4-13.4-8.2-9-13.4-20.2-13.4-31.4V-20c0-11.2 4.5-23.1 13.4-31.4 9-9 20.2-13.4 31.4-13.4h657c11.2 0 23.1 4.5 31.4 13.4 9 9 13.4 20.2 13.4 31.4V577.4L632 831.2H184zM885.8 577.4h-209c-11.2 0-23.1 4.5-31.4 13.4-9 8.2-13.4 20.2-13.4 31.4v209l253.8-253.8zM296 501.2h60.4l60.5-227.7h0.8l66.4 227.7h58.3l67.2-227.7 61.2 227.7H729l-89.6-293.4H579l-66.5 225.5h-0.7l-67.2-224.8h-60.5z"  horiz-adv-x="1024" />

    
    <glyph glyph-name="txt" unicode="&#58901;" d="M184 831.2c-11.2 0-23.1-4.5-31.4-13.4-8.2-9-13.4-20.2-13.4-31.4V-20c0-11.2 4.5-23.1 13.4-31.4 9-9 20.2-13.4 31.4-13.4h657c11.2 0 23.1 4.5 31.4 13.4 9 9 13.4 20.2 13.4 31.4V577.4L632 831.2H184zM885.8 577.4h-209c-11.2 0-23.1 4.5-31.4 13.4-9 8.2-13.4 20.2-13.4 31.4v209l253.8-253.8zM358.2 501.2h308.1v-49.5H540.5v-244.2H484V451.7H358.2z"  horiz-adv-x="1024" />

    
    <glyph glyph-name="quit" unicode="&#58902;" d="M938.2 406.7c12.4-12.3 12.4-32.5 0-44.8L743.7 167.4c-12.3-12.3-32.5-12.3-44.8 0-12.3 12.3-12.3 32.5 0 44.8L840 353.3H401c-17.4 0-31.7 14.3-31.7 31.7 0 17.5 14.3 31.7 31.7 31.7h437.5L698.9 556.3c-12.3 12.4-12.3 32.6 0 44.9 12.3 12.3 32.5 12.3 44.8 0l194.5-194.5zM653.8 108.4c17.5 0 31.7-14.3 31.7-31.7v-34.9c0-58.3-47.5-105.7-105.8-105.7H182.2c-58.3 0-105.7 47.4-105.7 105.7V726.2C76.5 784.5 123.9 832 182.2 832h397.6c58.3 0 105.8-47.5 105.8-105.8v-34.9c0-17.6-14.1-31.7-31.7-31.7-17.5 0-31.7 14.1-31.7 31.7v34.9c0 23.3-19 42.3-42.3 42.3H182.2c-23.2 0-42.3-19-42.3-42.3v-684.5c0-23.2 19.1-42.3 42.3-42.3h397.6c23.3 0 42.3 19.1 42.3 42.3v35c0 17.6 14.2 31.7 31.7 31.7z"  horiz-adv-x="1024" />

    
    <glyph glyph-name="prompt" unicode="&#58903;" d="M512 832C265.6 832 64 630.4 64 384s201.6-448 448-448 448 201.6 448 448S758.4 832 512 832z m0-840c-218.4 0-392 173.6-392 392s173.6 392 392 392 392-173.6 392-392-173.6-392-392-392zM456 608c0 31 25.1 56 56 56s56-25.1 56-56-25.1-56-56-56-56 25.1-56 56zM568 160V496H400v-56h56v-280h-56v-56h224v56z"  horiz-adv-x="1024" />

    
    <glyph glyph-name="Expand" unicode="&#58904;" d="M736 416c17.7 0 32-14.3 32-32s-14.3-32-32-32H288c-17.7 0-32 14.3-32 32s14.3 32 32 32h448zM896 832H128c-35.3 0-64-28.7-64-64v-768c0-35.3 28.7-64 64-64h768c35.3 0 64 28.7 64 64V768c0 35.3-28.7 64-64 64z m0-832H128V768h768v-768z"  horiz-adv-x="1024" />

    
    <glyph glyph-name="caveat" unicode="&#58905;" d="M512 832C264.5 832 64 631.5 64 384s200.5-448 448-448 448 200.6 448 448S759.5 832 512 832z m0-733.1c-22.5 0-40.7 18.2-40.7 40.7 0 22.5 18.2 40.7 40.7 40.7s40.7-18.2 40.7-40.7c0-22.5-18.2-40.7-40.7-40.7z m40.7 203.6c0-22.5-18.2-40.7-40.7-40.7s-40.7 18.2-40.7 40.7V628.4c0 22.5 18.2 40.7 40.7 40.7s40.7-18.2 40.7-40.7v-325.9z"  horiz-adv-x="1024" />

    
    <glyph glyph-name="cal_in" unicode="&#58906;" d="M544 416h192c17.7 0 32-14.3 32-32s-14.3-32-32-32H544v-192c0-17.7-14.3-32-32-32s-32 14.3-32 32V352H288c-17.7 0-32 14.3-32 32s14.3 32 32 32h192V608c0 17.7 14.3 32 32 32s32-14.3 32-32v-192zM896 832H128c-35.3 0-64-28.7-64-64v-768c0-35.3 28.7-64 64-64h768c35.3 0 64 28.7 64 64V768c0 35.3-28.7 64-64 64z m0-832H128V768h768v-768z"  horiz-adv-x="1024" />

    
    <glyph glyph-name="failure" unicode="&#58907;" d="M512 832C264.5 832 64 631.5 64 384s200.5-448 448-448 448 200.6 448 448S759.5 832 512 832z m210.9-615.4c11-10.8 11.2-28.5 0.4-39.6-10.9-11-28.5-11.2-39.6-0.4L512 344.8 340.3 176.6c-11-10.8-28.8-10.7-39.6 0.4-10.9 11-10.7 28.8 0.4 39.6L472 384 301.1 551.4c-11 10.9-11.2 28.5-0.4 39.6 10.9 11 28.5 11.2 39.6 0.4L512 423.2l171.7 168.2c11 10.8 28.8 10.7 39.6-0.4 10.8-11 10.7-28.8-0.4-39.6L552 384l170.9-167.4z"  horiz-adv-x="1024" />

    
    <glyph glyph-name="success" unicode="&#58908;" d="M828.9 700.9C741.5 788.3 626.8 832 512 832s-229.5-43.7-316.9-131.1c-174.8-174.7-174.8-459.1 0-633.8C282.5-20.3 397.2-64 512-64s229.5 43.7 316.9 131.1c174.8 174.7 174.8 459.1 0 633.8z m-69-197.7l-282-300.3c-1.8-1.6-3.6-2.7-5-3.5-1.5-1-2.6-1.9-4.1-2.5-3.6-1.5-7.3-2.3-11.3-2.3-3.6 0-7.2 0.7-10.7 2l-3.3 1.9c-1.8 0.9-3.8 1.9-5.6 3.6v0.1c-0.1 0.1-0.2 0.2-0.4 0.3L276.4 361.2c-5.6 5.4-8.7 12.8-8.7 20.5 0 7.8 2.9 15.2 8.4 20.8 11 11.1 30.2 11.2 41.3 0.2l139.3-137.2 260.8 277.7c10.6 11.2 30 11.9 41.2 1.3 5.7-5.4 9-12.6 9.2-20.5 0.2-7.8-2.6-15.2-8-20.8z"  horiz-adv-x="1024" />

    
    <glyph glyph-name="Attendance-machine" unicode="&#58909;" d="M652 328c-15.5 0-28 12.5-28 28s12.5 28 28 28h112c15.5 0 28-12.5 28-28s-12.5-28-28-28H652zM904 496H120c-30.9 0-56-25.1-56-56v-168c0-30.9 25.1-56 56-56h330.2v-224H204c-15.5 0-28-12.5-28-28s12.5-28 28-28h616c15.5 0 28 12.5 28 28s-12.5 28-28 28H506.2V216H904c30.9 0 56 25.1 56 56V440c0 30.9-25.1 56-56 56z m0-224H120V440h784v-168zM652 664c-15.5 0-28 12.5-28 28s12.5 28 28 28h112c15.5 0 28-12.5 28-28s-12.5-28-28-28H652zM904 832H120c-30.9 0-56-25.1-56-56v-168c0-30.9 25.1-56 56-56h784c30.9 0 56 25.1 56 56V776c0 30.9-25.1 56-56 56z m0-224H120V776h784v-168z"  horiz-adv-x="1024" />

    
    <glyph glyph-name="retreat" unicode="&#58910;" d="M217.5 428.8l326.7 326.7c17.5 17.5 17.5 45.9 0 63.3-17.5 17.5-45.8 17.5-63.3 0L77.1 415.2c-17.5-17.5-17.5-45.9 0-63.4l402.7-402.7c8.7-8.8 20.2-13.1 31.7-13.1 11.4 0 22.9 4.4 31.7 13.1 17.5 17.5 17.5 45.9 0 63.3L216.4 339.2h698.7c24.7 0 44.8 20.1 44.8 44.8 0 24.7-20.1 44.8-44.8 44.8H217.5z"  horiz-adv-x="1024" />

    
    <glyph glyph-name="Association" unicode="&#58911;" d="M427.7-64c-49.5 0-88.3 38.7-88.3 88.3v84.3c0 15.9 16.3 32.1 32.1 32.1 15.9 0 32.1-16.2 32.1-32.1v-84.3c0-12.2 11.9-24.1 24.1-24.1h444c12.2 0 24.1 12 24.1 24.1v444c0 12.2-12 24.1-24.1 24.1h-444c-12.2 0-24.1-11.9-24.1-24.1V384c0-15.9-16.2-32.1-32.1-32.1-15.9 0-32.1 16.1-32.1 32.1v84.3c0 49.5 38.8 88.4 88.3 88.4h444c49.6 0 88.3-38.8 88.3-88.4v-444c0-49.6-38.7-88.3-88.3-88.3h-444z m256.9 448v-84.3c0-49.5-38.7-88.3-88.3-88.3h-444c-49.5 0-88.3 38.7-88.3 88.3v444c0 49.5 38.8 88.3 88.3 88.3h444c49.6 0 88.3-38.8 88.3-88.3v-84.3c0-15.9-16.2-32.1-32.1-32.1-15.9 0-32.1 16.3-32.1 32.1v84.3c0 12.2-11.8 24.1-24.1 24.1h-444c-12.2 0-24.1-11.9-24.1-24.1v-444c0-12.2 11.9-24.1 24.1-24.1h444c12.2 0 24.1 11.8 24.1 24.1V384c0 15.9 16.2 32.1 32.1 32.1 15.9 0 32.1-16.2 32.1-32.1z"  horiz-adv-x="1024" />

    
    <glyph glyph-name="statistics" unicode="&#58912;" d="M764 104c-15.5 0-28 12.5-28 28V468c0 15.5 12.5 28 28 28s28-12.5 28-28v-336c0-15.5-12.5-28-28-28z m-224 0c-15.5 0-28 12.5-28 28V636c0 15.5 12.5 28 28 28s28-12.5 28-28v-504c0-15.5-12.5-28-28-28z m-224 0c-15.5 0-28 12.5-28 28V300c0 15.5 12.5 28 28 28s28-12.5 28-28v-168c0-15.5-12.5-28-28-28z m616-112c15.5 0 28-12.5 28-28s-12.5-28-28-28H148c-46.3 0-84 37.7-84 84V804c0 15.5 12.5 28 28 28s28-12.5 28-28v-784c0-15.4 12.6-28 28-28h784z"  horiz-adv-x="1024" />

    
    <glyph glyph-name="Refresh" unicode="&#58913;" d="M816.7 712.3C907.8 627.5 960 507.9 960 384c0-247-200.9-448-448-448-17.7 0-32.1 14.4-32.1 32.1s14.4 32.1 32.1 32.1h0.1c102.3 0 198.7 40 271.2 112.5 72.5 72.6 112.5 168.9 112.5 271.2 0 115.5-54 227.7-144.5 300.2l-4.2 3.3v-88.1c0-17.7-14.4-32.1-32.1-32.1s-32 14.4-32 32.1V749.6c0 17.7 14.8 32.8 32.3 32.8h150.3c17.4 0 32.1-15.1 32.1-32.8 0-17.8-14.7-32.8-32.1-32.8h-53.8l4.9-4.5zM544 799.9c0-17.7-14.4-32.1-32.1-32.1-211.7 0-383.8-172.2-383.8-383.9 0-125 61-242.5 163.1-314.2l4-2.8V157c0 17.7 14.4 32.1 32.1 32.1 17.7 0 32-14.4 32-32.1v-150.3c0-17.4-14.5-31.7-32.3-31.7H176.9c-17.7 0-32.1 14.3-32.1 31.9 0 17.7 14.4 32.1 32.1 32.1h44.4v3.9l-1 0.8C121 128.6 64 252.6 64 384 64 631 265 832 511.9 832c17.7 0 32.1-14.4 32.1-32.1z"  horiz-adv-x="1024" />

    
    <glyph glyph-name="Attendance" unicode="&#58914;" d="M690.9 365.5c10.9 10.9 28.7 10.9 39.5 0 10.9-10.9 10.9-28.7 0-39.5L471 66.5c-5.4-5.5-12.5-8.1-19.7-8.1s-14.4 2.7-19.9 8.1L293.6 204.4c-10.9 10.9-10.9 28.7 0 39.5 11 10.9 28.7 10.9 39.5 0l118.2-118 239.6 239.6zM428 664c-15.5 0-28 12.5-28 28s12.5 28 28 28h168c15.5 0 28-12.5 28-28s-12.5-28-28-28H428zM904 720h-84c-15.5 0-28-12.5-28-28s12.5-28 28-28h84v-168H120V664h84c15.5 0 28 12.5 28 28s-12.5 28-28 28h-84c-30.9 0-56-25.1-56-56v-672c0-30.9 25.1-56 56-56h784c31 0 56 25.1 56 56V664c0 30.9-25 56-56 56z m0-728H120V440h784v-448zM708 552c-15.5 0-28 12.5-28 28V804c0 15.5 12.5 28 28 28s28-12.5 28-28v-224c0-15.5-12.6-28-28-28zM316 552c-15.5 0-28 12.5-28 28V804c0 15.5 12.5 28 28 28s28-12.5 28-28v-224c0-15.5-12.5-28-28-28z"  horiz-adv-x="1024" />

    
    <glyph glyph-name="Account" unicode="&#58915;" d="M789.2 352c27.2 47.1 42.8 101.7 42.8 160 0 176.7-143.3 320-320 320S192 688.7 192 512c0-58.3 15.6-112.9 42.8-160C130.8 269.9 64 142.8 64 0c0-41.7 21.3-63 64-64h768c42.7 0 64 21.3 64 64 0 142.8-66.8 269.9-170.8 352zM512 768c141.4 0 256-114.6 256-256S653.4 256 512 256 256 370.6 256 512s114.6 256 256 256zM128 0c0 121.4 56.3 229.6 144.3 300 58.6-66.2 144.3-108 239.7-108 95.4 0 181.1 41.8 239.7 108 88-70.4 144.3-178.6 144.3-300H128z"  horiz-adv-x="1024" />

    
    <glyph glyph-name="data_deviant" unicode="&#58916;" d="M512 227.2c12.4 0 22.4-10 22.4-22.4V160c0-12.4-10-22.4-22.4-22.4s-22.4 10-22.4 22.4v44.8c0 12.4 10 22.4 22.4 22.4zM512 630.4c12.4 0 22.4-10 22.4-22.4v-313.6c0-12.4-10-22.4-22.4-22.4s-22.4 10-22.4 22.4V608c0 12.4 10 22.4 22.4 22.4zM512 832C264.6 832 64 631.4 64 384s200.6-448 448-448 448 200.6 448 448S759.4 832 512 832z m0-851.2c-222.7 0-403.2 180.5-403.2 403.2S289.3 787.2 512 787.2 915.2 606.7 915.2 384 734.7-19.2 512-19.2z"  horiz-adv-x="1024" />

    
    <glyph glyph-name="company" unicode="&#58917;" d="M288 384h256c17.7 0 32-14.3 32-32s-14.3-32-32-32H288c-17.7 0-32 14.3-32 32s14.3 32 32 32zM288 576h256c17.7 0 32-14.3 32-32s-14.3-32-32-32H288c-17.7 0-32 14.3-32 32s14.3 32 32 32zM928 0h-32V576c0 35.3-28.7 64-64 64H704V768c0 35.3-28.7 64-64 64H192c-35.3 0-64-28.7-64-64v-768H96c-17.7 0-32-14.3-32-32s14.3-32 32-32h832c17.7 0 32 14.3 32 32s-14.3 32-32 32z m-288 0H192V768h448v-768z m192 0H704V576h128v-576z"  horiz-adv-x="1024" />

    
    <glyph glyph-name="data_Notexit" unicode="&#58918;" d="M512 832c-160.8 0-291.2-130.4-291.2-291.2 0-79 31.5-150.7 82.5-203.1C159.8 268.6 64 128.5 64-41.6 64-54 74-64 86.4-64c12.4 0 22.4 10 22.4 22.4 0 158.8 93.2 288.4 231.8 347 48.1-35.1 107.3-55.8 171.4-55.8 160.8 0 291.2 130.4 291.2 291.2S672.8 832 512 832z m0-537.6c-136.1 0-246.4 110.3-246.4 246.4S375.9 787.2 512 787.2s246.4-110.3 246.4-246.4S648.1 294.4 512 294.4zM883.5 25.6l-57.8 57.8c-8.7 8.7-8.7 22.9 0 31.7 8.7 8.7 22.9 8.7 31.7 0l95-95 0.5-0.5c4.3-4.1 7-9.9 7-16.3 0-12.4-10-22.4-22.4-22.4h-336c-12.4 0-22.4 10-22.4 22.4 0 12.4 10 22.4 22.4 22.4h282z"  horiz-adv-x="1024" />

    
    <glyph glyph-name="data_People" unicode="&#58919;" d="M720.7 337.7c51.1 52.5 82.5 124.1 82.5 203.1C803.2 701.6 672.8 832 512 832S220.8 701.6 220.8 540.8c0-79 31.5-150.7 82.5-203.1C159.8 268.6 64 128.5 64-41.6 64-54 74-64 86.4-64c12.4 0 22.4 10 22.4 22.4 0 158.8 93.2 288.4 231.8 347 48.1-35.1 107.3-55.8 171.4-55.8s123.3 20.7 171.4 55.8c138.6-58.6 231.8-188.1 231.8-347 0-12.4 10-22.4 22.4-22.4 12.4 0 22.4 10 22.4 22.4 0 170.1-95.8 310.2-239.3 379.3zM512 294.4c-136.1 0-246.4 110.3-246.4 246.4S375.9 787.2 512 787.2s246.4-110.3 246.4-246.4S648.1 294.4 512 294.4z"  horiz-adv-x="1024" />

    
    <glyph glyph-name="data_success" unicode="&#58920;" d="M731.4 523c8.7 8.7 22.9 8.7 31.7 0 8.7-8.7 8.7-22.9 0-31.7L471.8 200.2c-8.7-8.7-22.9-8.7-31.7 0L283.4 357c-8.7 8.7-8.7 22.9 0 31.7 8.7 8.7 22.9 8.7 31.7 0l141-141L731.4 523zM512 832C264.6 832 64 631.4 64 384s200.6-448 448-448 448 200.6 448 448S759.4 832 512 832z m0-851.2c-222.7 0-403.2 180.5-403.2 403.2S289.3 787.2 512 787.2 915.2 606.7 915.2 384 734.7-19.2 512-19.2z"  horiz-adv-x="1024" />

    
    <glyph glyph-name="data_Visitor" unicode="&#58921;" d="M720.7 337.7c51.1 52.5 82.5 124.1 82.5 203.1C803.2 701.6 672.8 832 512 832S220.8 701.6 220.8 540.8c0-79 31.5-150.7 82.5-203.1C159.8 268.6 64 128.5 64-41.6 64-54 74-64 86.4-64c12.4 0 22.4 10 22.4 22.4 0 158.8 93.2 288.4 231.8 347 48.1-35.1 107.3-55.8 171.4-55.8s123.3 20.7 171.4 55.8c138.6-58.6 231.8-188.1 231.8-347 0-12.4 10-22.4 22.4-22.4 12.4 0 22.4 10 22.4 22.4 0 170.1-95.8 310.2-239.3 379.3zM512 294.4c-136.1 0-246.4 110.3-246.4 246.4S375.9 787.2 512 787.2s246.4-110.3 246.4-246.4S648.1 294.4 512 294.4zM579.2 70.4h179.2c12.4 0 22.4-10 22.4-22.4s-10-22.4-22.4-22.4H579.2c-12.4 0-22.4 10-22.4 22.4s10 22.4 22.4 22.4z"  horiz-adv-x="1024" />

    
    <glyph glyph-name="department" unicode="&#58922;" d="M904 272H792V384c0 30.9-25.1 56-56 56H540v56h140c30.9 0 56 25.1 56 56V776c0 30.9-25.1 56-56 56H344c-30.9 0-56-25.1-56-56v-224c0-30.9 25.1-56 56-56h140v-56H288c-30.9 0-56-25.1-56-56v-112H120c-30.9 0-56-25.1-56-56v-224c0-30.9 25.1-56 56-56h280c30.9 0 56 25.1 56 56V216c0 30.9-25.1 56-56 56H288V384h448v-112H624c-30.9 0-56-25.1-56-56v-224c0-30.9 25.1-56 56-56h280c30.9 0 56 25.1 56 56V216c0 30.9-25.1 56-56 56z m-504-56v-224H120V216h280z m-56 336V776h336v-224H344z m560-560H624V216h280v-224z"  horiz-adv-x="1024" />

    
    <glyph glyph-name="Error" unicode="&#58923;" d="M941.7 119.3L590.2 728.1c-43 74.4-113.3 74.4-156.3 0L82.4 119.3c-43-74.5-7.8-135.3 78.1-135.3h703.1c85.9 0 121 60.8 78.1 135.3zM512 98c-15.5 0-28 12.5-28 28s12.5 28 28 28 28-12.5 28-28-12.6-28-28-28z m28 140c0-15.5-12.5-28-28-28s-28 12.5-28 28V574c0 15.5 12.5 28 28 28s28-12.5 28-28v-336z"  horiz-adv-x="1024" />

    
    <glyph glyph-name="down" unicode="&#58924;" d="M544 45.3V800c0 17.7-14.3 32-32 32s-32-14.3-32-32v-754.7L278.6 246.6c-12.5 12.5-32.8 12.5-45.3 0s-12.5-32.8 0-45.3l256-256c12.5-12.5 32.8-12.5 45.3 0l256 256c12.5 12.5 12.5 32.8 0 45.3s-32.8 12.5-45.3 0L544 45.3z"  horiz-adv-x="1024" />

    
    <glyph glyph-name="Disable" unicode="&#58925;" d="M260 104c15.5 0 28-12.5 28-28s-12.5-28-28-28H120c-30.9 0-56 25.1-56 56V664c0 30.9 25.1 56 56 56h784c30.9 0 56-25.1 56-56v-560c0-30.9-25.1-56-56-56H764c-15.5 0-28 12.5-28 28s12.5 28 28 28h140V664H120v-560h140z m252 151.6l120.2 120.2c10.9 10.9 28.7 10.9 39.6 0 10.9-10.9 10.9-28.7 0-39.6L551.6 216l120.2-120.2c10.9-10.9 10.9-28.7 0-39.6-10.9-10.9-28.7-10.9-39.6 0L512 176.4 391.8 56.2c-10.9-10.9-28.7-10.9-39.6 0-10.9 10.9-10.9 28.7 0 39.6L472.4 216 352.2 336.2c-10.9 10.9-10.9 28.7 0 39.6 10.9 10.9 28.7 10.9 39.6 0L512 255.6z"  horiz-adv-x="1024" />

    
    <glyph glyph-name="job_title" unicode="&#58926;" d="M260 216h336c15.5 0 28-12.5 28-28s-12.5-28-28-28H260c-15.5 0-28 12.5-28 28s12.5 28 28 28zM736 608H568c-30.9 0-56-25.1-56-56v-168c0-30.9 25.1-56 56-56h168c30.9 0 56 25.1 56 56V552c0 30.9-25.1 56-56 56z m0-224H568V552h168v-168zM904 776H120c-30.9 0-56-25.1-56-56v-672c0-30.9 25.1-56 56-56h784c30.9 0 56 25.1 56 56V720c0 30.9-25.1 56-56 56z m0-728H120V720h784v-672z"  horiz-adv-x="1024" />

    
    <glyph glyph-name="List" unicode="&#58927;" d="M256 512H128c-35.3 0-64-28.7-64-64v-128c0-35.3 28.7-64 64-64h128c35.3 0 64 28.7 64 64V448c0 35.3-28.7 64-64 64z m0-192H128V448h128v-128zM256 192H128c-35.3 0-64-28.7-64-64v-128c0-35.3 28.7-64 64-64h128c35.3 0 64 28.7 64 64V128c0 35.3-28.7 64-64 64z m0-192H128V128h128v-128zM416 128h512c17.7 0 32-14.3 32-32s-14.3-32-32-32H416c-17.7 0-32 14.3-32 32s14.3 32 32 32zM416 448h512c17.7 0 32-14.3 32-32s-14.3-32-32-32H416c-17.7 0-32 14.3-32 32s14.3 32 32 32zM416 768h512c17.7 0 32-14.3 32-32s-14.3-32-32-32H416c-17.7 0-32 14.3-32 32s14.3 32 32 32zM256 832H128c-35.3 0-64-28.7-64-64v-128c0-35.3 28.7-64 64-64h128c35.3 0 64 28.7 64 64V768c0 35.3-28.7 64-64 64z m0-192H128V768h128v-128z"  horiz-adv-x="1024" />

    
    <glyph glyph-name="Export" unicode="&#58928;" d="M568 199.6l232.2 232.2c10.9 10.9 28.7 10.9 39.6 0 10.9-10.9 10.9-28.7 0-39.6l-280-280c-10.9-10.9-28.7-10.9-39.6 0l-280 280c-10.9 10.9-10.9 28.7 0 39.6 10.9 10.9 28.7 10.9 39.6 0L512 199.6V804c0 15.5 12.5 28 28 28s28-12.5 28-28v-604.4zM64 356c0 15.5 12.5 28 28 28s28-12.5 28-28v-364h784V356c0 15.5 12.5 28 28 28s28-12.5 28-28v-364c0-30.9-25.1-56-56-56H120c-30.9 0-56 25.1-56 56V356z"  horiz-adv-x="1024" />

    
    <glyph glyph-name="links" unicode="&#58929;" d="M352 416.1h320c17.7 0 32-14.3 32-32s-14.3-32-32-32H352c-17.7 0-32 14.3-32 32s14.3 32 32 32zM613.4 543.8c-17.7-0.2-32.1 14-32.3 31.7-0.2 17.7 14 32.1 31.7 32.3h282.6c35.3 0.3 64.3-28 64.6-63.4v-320.3c0-35.3-28.7-64-64-64H608c-17.7 0-32 14.3-32 32s14.3 32 32 32h288V543.8H613.4zM421.4 607.9c17.7-0.2 31.9-14.6 31.7-32.3-0.2-17.7-14.6-31.9-32.3-31.7H128v-319.7h288c17.7 0 32-14.3 32-32s-14.3-32-32-32H128c-35.3 0-64 28.7-64 64V543.9v0.6c0.3 35.3 29.2 63.7 64.6 63.4h292.8z"  horiz-adv-x="1024" />

    
    <glyph glyph-name="Manual" unicode="&#58930;" d="M288 192h384c17.7 0 32-14.3 32-32s-14.3-32-32-32H288c-17.7 0-32 14.3-32 32s14.3 32 32 32z m0 192h128c17.7 0 32-14.3 32-32s-14.3-32-32-32H288c-17.7 0-32 14.3-32 32s14.3 32 32 32z m233.3 9.3c-12.5 12.5-12.5 32.8 0 45.3l384 384c12.5 12.5 32.8 12.5 45.3 0s12.5-32.8 0-45.3l-384-384c-6.3-6.2-14.5-9.3-22.7-9.3s-16.3 3.1-22.6 9.3zM160-64c-52.9 0-96 43.1-96 96V736c0 52.9 43.1 96 96 96h512c17.7 0 32-14.3 32-32s-14.3-32-32-32H160c-17.6 0-32-14.4-32-32v-704c0-17.6 14.4-32 32-32h640c17.6 0 32 14.4 32 32V404.7c0 17.7 14.3 32 32 32s32-14.3 32-32V32c0-52.9-43.1-96-96-96H160z"  horiz-adv-x="1024" />

    
    <glyph glyph-name="load" unicode="&#58931;" d="M512 832c-46.4 0-84-37.1-84-83 0-45.8 37.6-83 84-83s84 37.1 84 83-37.6 83-84 83zM428 19a84 83 0 1 1 168 0 84 83 0 1 1-168 0ZM831.2 284.4c-46.4 0-84-37.1-84-83 0-45.8 37.6-83 84-83s84 37.1 84 83-37.6 83-84 83zM747.2 566.5a84 83 0 1 1 168 0 84 83 0 1 1-168 0ZM192.8 284.4c-46.4 0-84-37.1-84-83 0-45.8 37.6-83 84-83s84 37.1 84 83-37.6 83-84 83zM108.8 566.5a84 83 0 1 1 168 0 84 83 0 1 1-168 0Z"  horiz-adv-x="1024" />

    
    <glyph glyph-name="Nav_personnel" unicode="&#58932;" d="M849.9 245.1c-31.4 31.5-99.9 64-159.9 64-41.2 0-77.6-47.2-120.1-102.1-14.6-18.8-63.6-75-68.1-75-5.9 0.3-39.8 45.5-51.8 62.6-37.9 53.8-80.9 114.6-136.9 114.6-82.3 0-150.9-62.2-159-69.8-89.3-89.2-88.9-184.1-88.7-229.7 0-50.8 34-73.6 67.7-73.6h748c51.5 0 74.5 41 77.6 71 0.1 112.4-68.1 197.4-108.8 238zM881.1-8h-748c-5.3 0-11.7 0-11.7 17.9-0.2 40.9-0.6 117.1 71 188.6 2.4 2.2 59.1 54.7 120.8 54.7 27 0 65.6-54.8 91.2-90.9 54.4-77 70.1-85.1 97.6-86.2 18.4 0 37.4 0 112.4 96.8 22.6 29.3 60.5 78.2 75.9 80.4 43-0.1 97.7-25 120.2-47.7 34-34 90.9-104.3 92.3-195-1.4-7.1-5.9-18.6-21.7-18.6zM690.1 832H418.4c-0.9 0-36-3.4-66.9-20.1-44-23.8-68.2-64.7-68.2-115 0-73.1 3.9-166.7 34.8-242 16.6-40.5 39.9-72.1 69.1-94.1 33.3-25 74.6-37.7 122.7-37.7 86.7 0 150.3 47.9 183.8 138.5 21.5 58.2 26 120.7 26 163V802.2c0.1 16.4-13.3 29.8-29.6 29.8z m-26.4-207.4c0-37.7-3.9-93.2-22.5-143.6-25.4-68.5-68.3-101.9-131.3-101.9-35.7 0-65.7 8.9-89 26.5-21.2 15.9-38.3 39.6-51 70.6-27.2 66.1-30.6 152.7-30.6 220.8 0 29.7 13 51.9 38.9 65.7 15.6 8.5 35 12.3 43.2 13.4h242.4v-151.5z"  horiz-adv-x="1024" />

    
    <glyph glyph-name="minimize" unicode="&#58933;" d="M101.3 421.3h821.3c20.6 0 37.3-16.7 37.3-37.3 0-20.6-16.7-37.3-37.3-37.3H101.3C80.7 346.7 64 363.4 64 384c0 20.6 16.7 37.3 37.3 37.3z"  horiz-adv-x="1024" />

    
    <glyph glyph-name="Nav_Home" unicode="&#58934;" d="M512 765.7L111.1 391.5c-11.3-10.6-29-9.9-39.6 1.4-10.6 11.3-9.9 29 1.4 39.6l420 392c10.8 10 27.5 10 38.2 0l420-392c11.3-10.6 11.9-28.3 1.4-39.6-10.6-11.3-28.3-11.9-39.6-1.4L512 765.7zM624 188v-196h168V384c0 15.5 12.5 28 28 28s28-12.5 28-28v-420c0-15.5-12.5-28-28-28H596c-15.5 0-28 12.5-28 28V160.1l-112 0.5V-36c0-15.5-12.5-28-28-28H204c-15.5 0-28 12.5-28 28V384c0 15.5 12.5 28 28 28s28-12.5 28-28v-392h168V188.7c0 15.5 12.6 28.1 28.1 28l168-0.7c15.4-0.1 27.9-12.6 27.9-28z"  horiz-adv-x="1024" />

    
    <glyph glyph-name="Nav_Toolbox" unicode="&#58935;" d="M904 664H736V776c0 30.9-25.1 56-56 56H344c-30.9 0-56-25.1-56-56v-112H120c-30.9 0-56-25.1-56-56v-616c0-30.9 25.1-56 56-56h784c30.9 0 56 25.1 56 56V608c0 30.9-25.1 56-56 56zM344 776h336v-112H344V776z m56-336V608h224v-168H400z m224-56v-112H400V384h224zM120 608h224v-168H120V608z m784-616H120V384h224v-112c0-30.9 25.1-56 56-56h224c30.9 0 56 25.1 56 56V384h224v-392z m0 448H680V608h224v-168z"  horiz-adv-x="1024" />

    
    <glyph glyph-name="maximize" unicode="&#58936;" d="M191.5 10.7h133.9c20.6 0 37.3-16.7 37.3-37.3 0-20.6-16.7-37.3-37.3-37.3H138.7C97.4-64 64-30.6 64 10.7V197.3c0 20.6 16.7 37.3 37.3 37.3s37.3-16.7 37.3-37.3v-133.9l234.9 234.9c14.6 14.6 38.2 14.6 52.8 0 14.6-14.6 14.6-38.2 0-52.8L191.5 10.7z m-52.8 693.8v-133.9c0-20.6-16.7-37.3-37.3-37.3S64 550 64 570.7V757.3C64 798.6 97.4 832 138.7 832h186.7c20.6 0 37.3-16.7 37.3-37.3s-16.7-37.3-37.3-37.3H191.5l234.9-234.9c14.6-14.6 14.6-38.2 0-52.8-14.6-14.6-38.2-14.6-52.8 0L138.7 704.5z m746.6-641V197.3c0 20.6 16.7 37.3 37.3 37.3S960 218 960 197.3v-186.7c0-41.2-33.4-74.7-74.7-74.7H698.7c-20.6 0-37.3 16.7-37.3 37.3 0 20.6 16.7 37.3 37.3 37.3h133.9l-235 235.1c-14.6 14.6-14.6 38.2 0 52.8 14.6 14.6 38.2 14.6 52.8 0l234.9-234.9z m0 641L650.4 469.6c-14.6-14.6-38.2-14.6-52.8 0-14.6 14.6-14.6 38.2 0 52.8l234.9 234.9H698.7c-20.6 0-37.3 16.7-37.3 37.3S678 832 698.7 832h186.7c41.2 0 74.7-33.4 74.7-74.7v-186.7c0-20.6-16.7-37.3-37.3-37.3s-37.3 16.7-37.3 37.3V704.5z"  horiz-adv-x="1024" />

    
    <glyph glyph-name="Nav_device" unicode="&#58937;" d="M92-8h840c15.5 0 28-12.5 28-28s-12.5-28-28-28H92c-15.5 0-28 12.5-28 28s12.5 28 28 28zM92 160h840c15.5 0 28-12.5 28-28s-12.5-28-28-28H92c-15.5 0-28 12.5-28 28s12.5 28 28 28zM260 608h168c15.5 0 28-12.5 28-28s-12.5-28-28-28H260c-15.5 0-28 12.5-28 28s12.5 28 28 28zM848 832H176c-61.9 0-112-50.1-112-112v-280c0-61.9 50.1-112 112-112h672c61.9 0 112 50.1 112 112V720c0 61.9-50.1 112-112 112z m56-392c0-30.9-25.1-56-56-56H176c-30.9 0-56 25.1-56 56V720c0 30.9 25.1 56 56 56h672c30.9 0 56-25.1 56-56v-280z"  horiz-adv-x="1024" />

    
    <glyph glyph-name="Nav_warrant" unicode="&#58938;" d="M316 328h336c15.5 0 28-12.5 28-28s-12.5-28-28-28H316c-15.5 0-28 12.5-28 28s12.5 28 28 28z m0 168h336c15.5 0 28-12.5 28-28s-12.5-28-28-28H316c-15.5 0-28 12.5-28 28s12.5 28 28 28z m0 168h336c15.5 0 28-12.5 28-28s-12.5-28-28-28H316c-15.5 0-28 12.5-28 28s12.5 28 28 28z m364.8-657.2l230.4 256c10.3 11.5 28 12.4 39.5 2.1s12.4-28 2.1-39.5l-252-280c-11.4-12.7-31.4-12.3-42.3 0.8l-140 168c-9.9 11.9-8.3 29.5 3.6 39.4s29.5 8.3 39.4-3.6l119.3-143.2zM428 48c15.5 0 28-12.5 28-28s-12.5-28-28-28H120c-30.9 0-56 25.1-56 56V776c0 30.9 25.1 56 56 56h728c30.9 0 56-25.1 56-56v-420c0-15.5-12.5-28-28-28s-28 12.5-28 28V776H120v-728h308z"  horiz-adv-x="1024" />

    
    <glyph glyph-name="Offline" unicode="&#58939;" d="M681.8 499c49.5-25.1 93.5-61.7 127.2-106 9.6-12.8 7.2-31-5.4-40.6-12.9-9.7-31.2-7.3-40.7 5.4-59.5 78.2-149.8 122.9-247.7 122.9-98.1 0-188.4-44.7-247.7-122.9-9.2-12.3-28.5-14.8-40.8-5.5-6.1 4.6-10.1 11.4-11.1 19-1 7.7 1 15.4 5.7 21.6 33.5 44.2 77.6 80.9 127.3 106 52 26.4 108 39.8 166.6 39.8 58.5-0.1 114.6-13.4 166.6-39.7z m272.5-1.4c9.6-12.8 6.8-31.1-6-40.7-6.2-4.6-13.9-6.6-21.5-5.4-7.7 1.2-14.4 5.2-19 11.4-94 126.5-238 199-395.2 199-155.6 0-303.6-74.8-396.1-200.3-9.1-12.6-27.9-15.7-40.6-6.2-6.2 4.6-10.3 11.4-11.4 19-1.2 7.7 0.7 15.3 5.4 21.6C120 564 186 620.3 260.7 658.8c77.3 40 164.4 61.2 251.8 61.2 87.1 0 174-20.9 251.3-60.6 74.5-38.4 140.4-94.3 190.5-161.8zM540 227.6l92.2 92.2c10.9 10.9 28.7 10.9 39.6 0 10.9-10.9 10.9-28.7 0-39.6L579.6 188l92.2-92.2c10.9-10.9 10.9-28.7 0-39.6-10.9-10.9-28.7-10.9-39.6 0L540 148.4l-92.2-92.2c-10.9-10.9-28.7-10.9-39.6 0-10.9 10.9-10.9 28.7 0 39.6l92.2 92.2-92.2 92.2c-10.9 10.9-10.9 28.7 0 39.6 10.9 10.9 28.7 10.9 39.6 0l92.2-92.2z"  horiz-adv-x="1024" />

    
    <glyph glyph-name="Nav_record" unicode="&#58940;" d="M260 104c-15.5 0-28 12.5-28 28s12.5 28 28 28h112c15.5 0 28-12.5 28-28s-12.5-28-28-28H260zM652 608c-15.5 0-28 12.5-28 28s12.5 28 28 28h112c15.5 0 28-12.5 28-28s-12.5-28-28-28H652zM260 272c-15.5 0-28 12.5-28 28s12.5 28 28 28h392c15.5 0 28-12.5 28-28s-12.5-28-28-28H260zM764 496c15.5 0 28-12.5 28-28s-12.5-28-28-28H372c-15.5 0-28 12.5-28 28s12.5 28 28 28h392zM764 160c15.5 0 28-12.5 28-28s-12.5-28-28-28H484c-15.5 0-28 12.5-28 28s12.5 28 28 28h280zM260 608c-15.5 0-28 12.5-28 28s12.5 28 28 28h280c15.5 0 28-12.5 28-28s-12.5-28-28-28H260zM904 832H120c-30.9 0-56-25.1-56-56v-784c0-31 25.1-56 56-56h784c30.9 0 56 25 56 56V776c0 30.9-25.1 56-56 56z m0-840H120V776h784v-784z"  horiz-adv-x="1024" />

    
    <glyph glyph-name="Tree" unicode="&#58941;" d="M512 256h384c35.3 0 64 28.7 64 64V448c0 35.3-28.7 64-64 64H512c-35.4 0-64-28.7-64-64v-32.1H320V576h320c35.3 0 64 28.7 64 64V768c0 35.3-28.7 64-64 64H128c-35.4 0-64-28.7-64-64v-128c0-35.3 28.6-64 64-64h128v-480.1c0-35.3 28.7-64 64-64h128V0c0-35.3 28.6-64 64-64h384c35.3 0 64 28.7 64 64V128c0 35.3-28.7 64-64 64H512c-35.4 0-64-28.7-64-64v-32.1H320v256h128V320c0-35.3 28.6-64 64-64z m0 192h384v-128H512V448z m0-320h384v-128H512V128zM128 640V768h512v-128H128z"  horiz-adv-x="1024" />

    
    <glyph glyph-name="upwards" unicode="&#58942;" d="M544 722.7V-32c0-17.7-14.3-32-32-32s-32 14.3-32 32V722.7L278.6 521.4c-12.5-12.5-32.8-12.5-45.3 0s-12.5 32.8 0 45.3l256 256c12.5 12.5 32.8 12.5 45.3 0l256-256c12.5-12.5 12.5-32.8 0-45.3s-32.8-12.5-45.3 0L544 722.7z"  horiz-adv-x="1024" />

    
    <glyph glyph-name="View" unicode="&#58943;" d="M260 496h112c15.5 0 28-12.5 28-28s-12.5-28-28-28H260c-15.5 0-28 12.5-28 28s12.5 28 28 28zM680 636c0-15.5-12.5-28-28-28H260c-15.5 0-28 12.5-28 28s12.5 28 28 28h392c15.4 0 28-12.5 28-28zM951.8-16.2L800.3 135.4C829.7 173.2 848 220.3 848 272c0 123.7-100.3 224-224 224S400 395.7 400 272s100.3-224 224-224c51.7 0 98.8 18.3 136.7 47.7l151.5-151.5c11-10.9 28.7-10.9 39.6 0 10.9 11 10.9 28.7 0 39.6zM624 104c-92.6 0-168 75.4-168 168s75.4 168 168 168 168-75.4 168-168-75.4-168-168-168zM652-8c15.5 0 28-12.5 28-28 0-15.4-12.5-28-28-28H148c-46.3 0-84 37.7-84 84V748c0 46.3 37.7 84 84 84h616c46.3 0 84-37.7 84-84v-158.1c0-15.6-12.5-28-28-28s-28 12.4-28 28V748c0 15.4-12.6 28-28 28H148c-15.4 0-28-12.6-28-28v-728c0-15.3 12.6-28 28-28h504z"  horiz-adv-x="1024" />

    
    <glyph glyph-name="warrant" unicode="&#58944;" d="M904.4 104.5c25.4-42.2 43.8-87.3 54.8-134 3.6-15-5.7-30.1-20.8-33.7-2.2-0.6-4.3-0.8-6.4-0.8-12.7 0-24.2 8.7-27.2 21.6-9.7 41-26 80.8-48.4 118-8 13.3-3.7 30.5 9.5 38.5 13.4 7.8 30.5 3.6 38.5-9.6zM951.8 319.8c10.9-10.9 10.9-28.7 0-39.6l-336-336c-5.5-5.5-12.7-8.2-19.8-8.2-7.1 0-14.3 2.7-19.8 8.2l-168 168c-10.9 10.9-10.9 28.7 0 39.6 10.9 10.9 28.7 10.9 39.6 0L596 3.6l316.2 316.2c10.9 10.9 28.7 10.9 39.6 0zM733.2 270.4c-27.9 15.6-57.6 27.3-88 36.7C732.3 354.6 792 445.8 792 552c0 154.6-125.3 280-280 280S232 706.6 232 552c0-105.8 59.4-196.8 145.9-244.4-153.1-47-274.3-172.5-313.2-337.2-3.6-15 5.7-30.1 20.8-33.7 2.2-0.6 4.3-0.8 6.4-0.8 12.7 0 24.2 8.7 27.2 21.6C163 142.7 324.4 272 511.9 272h0.2c67.6-0.1 134.7-17.5 193.9-50.5 13.3-7.5 30.5-2.7 38.1 10.8 7.5 13.6 2.6 30.6-10.9 38.1zM512 328h-0.1C388.4 328.1 288 428.5 288 552s100.5 224 224 224 224-100.5 224-224-100.4-223.9-223.9-224h-0.1z"  horiz-adv-x="1024" />

    
    <glyph glyph-name="remind" unicode="&#58945;" d="M512 832C264.6 832 64 631.4 64 384s200.6-448 448-448 448 200.6 448 448S759.4 832 512 832z m-1-736c-23.9 0-43.2 19.4-43.3 43.3 0 23.8 19.4 43.3 43.3 43.3 23.8 0 43.3-19.4 43.3-43.3S534.8 96 511 96z m162.1 351.3c-11.4-20.5-33.5-45.5-66.7-74.7-22.3-19.8-36.8-34.3-43.6-43.7-13.2-18.2-17.6-38-19.4-60-1.9-22.7-8.6-46.9-38.7-42.4-23.9 3.5-29.3 23.6-28.5 43.7 1 21.7 4.8 40.7 11.1 57.1 5.6 14.6 14.5 29.4 26.9 44.5 9 10.9 25.5 26.7 49.1 47.5 23.7 21 39 37.6 46.1 50 7.1 12.3 10.6 25.9 10.6 40.5 0 26.6-10.4 49.9-31.1 70.1-40 38.7-108 41.2-149.1 2.9-18.3-17.1-30-43.4-37.1-78.4-10.1-49.7-75.5-32.8-68 7.8C352.5 607.9 411 671.5 511.9 672c48.9 0.2 96.8-20.2 129.7-50.3 32.3-29.5 48.6-65.3 48.6-107.4 0-24.2-5.7-46.6-17.1-67z"  horiz-adv-x="1024" />

    
    <glyph glyph-name="Setting" unicode="&#58946;" d="M952.8 461.2c-2.3 13.1-13.3 22.9-26.6 23.9-48.2 3.2-91.1 30-115.2 71.6-24.1 41.7-25.7 92.4-4.4 135.7 6 12 2.9 26.4-7.3 34.9-39.4 33-84.4 58.9-133.9 77.1-12.5 4.7-26.6 0-34-11.1-26.9-40.1-71.6-64-119.6-64s-92.7 23.9-119.6 64c-7.4 11.1-21.5 15.6-34 11.1-49.5-18.1-94.5-44-133.9-76.9-10.2-8.5-13.2-23-7.3-34.9 21.3-43.3 19.7-94-4.4-135.8-24.1-41.5-67-68.4-115.1-71.6-13.3-0.9-24.3-10.8-26.6-23.9-4.5-27.5-6.9-52.6-6.9-77.3 0-24.6 2.4-49.9 7.2-77.3 2.2-13.1 13.2-22.9 26.6-23.9 48.1-3.2 91.1-30 115.1-71.6 24.1-41.7 25.7-92.4 4.4-135.7-5.8-12-2.8-26.4 7.3-34.9 39.4-33 84.4-58.9 134-77 12.4-4.5 26.5 0 34 11.1 26.9 40 71.6 63.9 119.4 63.9 48.1 0 92.7-23.9 119.6-63.9 5.6-8.2 14.6-12.9 24.1-12.9 3.3 0 6.7 0.6 9.9 1.7 49.5 18 94.5 44 134 77 10.2 8.5 13.2 23 7.3 34.9-21.4 43.3-19.7 94 4.4 135.7 24.1 41.5 67 68.4 115.1 71.6 13.3 0.9 24.3 10.8 26.6 23.9 4.7 27.3 7.1 52.5 7.1 77.3-0.3 24.8-2.5 50-7.3 77.3z m-54-123.4c-57.7-10.7-108.3-46-137.9-97.5-29.8-51.5-35.1-112.9-15.4-168.4-24.6-18.4-51.5-33.8-80.3-46.1-38.1 44.6-93.9 70.7-153.3 70.7-59.3 0-115.1-26-153.2-70.7-28.9 12.4-55.7 27.6-80.3 46.1 19.6 55.4 14.3 116.8-15.4 168.4-29.7 51.5-80.2 86.8-138 97.5-2.1 16.1-3.1 31.4-3.1 46.4 0 14.8 1 30.1 3.1 46.2 57.7 10.7 108.2 46 138 97.5 29.8 51.6 35.1 113 15.4 168.4 24.6 18.4 51.5 33.8 80.2 46.1 38.1-44.7 93.9-70.8 153.3-70.8 59.5 0 115.3 26.1 153.5 70.8 28.8-12.4 55.6-27.8 80.2-46.1-19.8-55.4-14.5-116.9 15.4-168.4 29.6-51.5 80.2-86.8 138-97.5 2.1-16.1 3.1-31.4 3.1-46.2-0.3-15.1-1.2-30.4-3.3-46.4zM511.9 557.3c-95.6 0-173.2-77.7-173.2-173.2 0-95.5 77.7-173.2 173.2-173.2 19 0 37.6 3 55.4 9.1 15.1 5.1 23.3 21.6 18.1 36.7-5.1 15.2-21.4 23.2-36.7 18.2-11.8-4-24.2-6-36.9-6-63.6 0-115.3 51.7-115.3 115.3 0 63.6 51.7 115.3 115.3 115.3 63.6 0 115.3-51.6 115.3-115.3 0-8.5-0.8-16.8-2.7-25-0.8-3.9-1.9-7.8-3.1-11.6-5.1-15.2 3.1-31.5 18.4-36.5 15.2-5.1 31.6 3.1 36.6 18.4 1.9 5.7 3.6 11.5 4.7 17.3 2.7 12.1 4.1 24.7 4.1 37.4 0 95.4-77.7 173.1-173.2 173.1"  horiz-adv-x="1024" />

    
    <glyph glyph-name="Client" unicode="&#58947;" d="M224 0h576c17.7 0 32-14.3 32-32s-14.3-32-32-32H224c-17.7 0-32 14.3-32 32s14.3 32 32 32zM896 832H128c-35.3 0-64-28.7-64-64v-576c0-35.3 28.7-64 64-64h768c35.3 0 64 28.7 64 64V768c0 35.3-28.7 64-64 64z m0-640H128V320h768v-128z m0 192H128V768h768v-384z"  horiz-adv-x="1024" />

    
    <glyph glyph-name="change_Password" unicode="&#58948;" d="M928 416c17.7 0 32-14.3 32-32v-320c0-70.7-57.3-128-128-128H192c-70.7 0-128 57.3-128 128V384c0 70.7 57.3 128 128 128h64V704c0 70.7 57.3 128 128 128h256c70.7 0 128-57.3 128-128v-56.3c0-17.7-14.3-32-32-32s-32 14.3-32 32V704c0 35.3-28.7 64-64 64H384c-35.3 0-64-28.7-64-64v-192h248.3c17.7 0 32-14.3 32-32s-14.3-32-32-32H192c-35.3 0-64-28.7-64-64v-320c0-35.3 28.7-64 64-64h640c35.3 0 64 28.7 64 64V384c0 17.7 14.3 32 32 32zM393.4 73.4c-12.5 12.5-12.5 32.8 0 45.2l512 512c12.5 12.5 32.8 12.5 45.2 0 12.5-12.5 12.5-32.8 0-45.2l-512-512c-6.3-6.3-14.5-9.3-22.6-9.3-8.2-0.1-16.4 3-22.6 9.3z"  horiz-adv-x="1024" />

    
    <glyph glyph-name="Backup" unicode="&#58949;" d="M624 804c0-15.5-12.5-28-28-28H120v-476c0-15.5-12.5-28-28-28s-28 12.5-28 28V804c0 15.5 12.5 28 28 28h504c15.5 0 28-12.5 28-28zM932 720H204c-15.5 0-28-12.5-28-28v-728c0-15.5 12.5-28 28-28h728c15.5 0 28 12.5 28 28V692c0 15.5-12.5 28-28 28z m-28-728H232V664h672v-672zM752.4 104L464.2 392.2c-10.9 10.9-10.9 28.7 0 39.6 10.9 10.9 28.7 10.9 39.6 0L792 143.6V300c0 15.5 12.5 28 28 28s28-12.5 28-28v-224c0-15.5-12.5-28-28-28H596c-15.5 0-28 12.5-28 28s12.5 28 28 28h156.4z"  horiz-adv-x="1024" />

    
    <glyph glyph-name="migrate" unicode="&#58950;" d="M428 692m-28 0a28 28 0 1 1 56 0 28 28 0 1 1-56 0ZM316 692m-28 0a28 28 0 1 1 56 0 28 28 0 1 1-56 0ZM204 692m-28 0a28 28 0 1 1 56 0 28 28 0 1 1-56 0ZM864.4 104H540c-15.5 0-28 12.5-28 28s12.5 28 28 28h324.4L744.2 280.2c-10.9 10.9-10.9 28.7 0 39.6 10.9 10.9 28.7 10.9 39.6 0l168-168c10.9-10.9 10.9-28.7 0-39.6l-168-168c-10.9-10.9-28.7-10.9-39.6 0-10.9 10.9-10.9 28.7 0 39.6L864.4 104zM904 832H120c-30.9 0-56-25.1-56-56v-728c0-30.9 25.1-56 56-56h420c15.5 0 28 12.5 28 28s-12.5 28-28 28H120V552h784v-196c0-15.5 12.5-28 28-28s28 12.5 28 28V776c0 30.9-25.1 56-56 56z m0-224H120V776h784v-168z"  horiz-adv-x="1024" />

    
    <glyph glyph-name="Compared" unicode="&#58951;" d="M642.4 48c15.5 0 28-12.5 28-28s-12.5-28-28-28h-56c-15.5 0-28 12.5-28 28s12.5 28 28 28h56zM810.4 48c15.5 0 28-12.5 28-28s-12.5-28-28-28h-56c-15.5 0-28 12.5-28 28s12.5 28 28 28h56zM904 99.2c0 15.5 12.5 28 28 28s28-12.5 28-28V76c0-17-5.1-33.3-14.4-47.1-8.7-12.8-26.1-16.2-38.9-7.5-12.8 8.7-16.2 26.1-7.5 38.9 3.1 4.6 4.8 10 4.8 15.7v23.2zM904 267.2c0 15.5 12.5 28 28 28s28-12.5 28-28v-56c0-15.5-12.5-28-28-28s-28 12.5-28 28v56zM904 435.2c0 15.5 12.5 28 28 28s28-12.5 28-28v-56c0-15.5-12.5-28-28-28s-28 12.5-28 28v56zM904 603.2c0 15.5 12.5 28 28 28s28-12.5 28-28v-56c0-15.5-12.5-28-28-28s-28 12.5-28 28v56zM876 720c-15.5 0-28 12.5-28 28s12.5 28 28 28c30.3 0 57.8-16.2 72.7-42 7.7-13.4 3.2-30.5-10.2-38.3-13.4-7.7-30.5-3.2-38.3 10.2-4.9 8.7-14.1 14.1-24.2 14.1zM708 720c-15.5 0-28 12.5-28 28s12.5 28 28 28h56c15.5 0 28-12.5 28-28s-12.5-28-28-28h-56zM596 776h-56V804c0 15.5-12.5 28-28 28s-28-12.5-28-28v-28H148c-46.4 0-84-37.6-84-84v-616c0-46.4 37.6-84 84-84h336v-28c0-15.5 12.5-28 28-28s28 12.5 28 28V720h56c15.5 0 28 12.5 28 28s-12.5 28-28 28zM484 48H148c-15.5 0-28 12.5-28 28V692c0 15.5 12.5 28 28 28h336v-672z"  horiz-adv-x="1024" />

    
    <glyph glyph-name="history_record" unicode="&#58952;" d="M64 384c0 15.5 12.5 28 28 28s28-12.5 28-28c0-197.1 146.3-362.9 339.8-388.6 15.3-2 26.1-16.1 24.1-31.4-2-15.3-16.1-26.1-31.4-24.1C231.2-30.7 64 158.7 64 384zM596-8h336c15.5 0 28-12.5 28-28s-12.5-28-28-28H596c-15.5 0-28 12.5-28 28s12.5 28 28 28zM596 104h336c15.5 0 28-12.5 28-28s-12.5-28-28-28H596c-15.5 0-28 12.5-28 28s12.5 28 28 28zM596 216h336c15.5 0 28-12.5 28-28s-12.5-28-28-28H596c-15.5 0-28 12.5-28 28s12.5 28 28 28zM484 636c0 15.5 12.5 28 28 28s28-12.5 28-28v-252c0-15.5-12.5-28-28-28H316c-15.5 0-28 12.5-28 28s12.5 28 28 28h168V636zM185.1 600.5l92 8.1c15.4 1.3 29-10 30.3-25.5 1.3-15.4-10-29-25.5-30.3l-167.4-14.6c-15.4-1.3-29 10-30.3 25.5L69.7 730.9c-1.3 15.4 10 29 25.5 30.3 15.4 1.3 29-10 30.3-25.5l9.6-109.5C216.6 753 357.4 832 512 832c247.4 0 448-200.6 448-448 0-15.5-12.5-28-28-28s-28 12.5-28 28c0 216.5-175.5 392-392 392-133.5 0-255.1-67.3-326.9-175.5z"  horiz-adv-x="1024" />

    
    <glyph glyph-name="display" unicode="&#58953;" d="M507.4 538.1c-85.1 0-154.3-69-154.3-154.1s69.2-154.2 154.3-154.2c85.2 0 154.3 69.1 154.3 154.2 0 84.9-69.1 154.1-154.3 154.1z m0-251.4c-53.6 0-97.3 43.6-97.3 97.3 0 53.6 43.7 97.2 97.3 97.2 53.6 0 97.3-43.6 97.3-97.2s-43.7-97.3-97.3-97.3zM503 685.1C246.1 685.1 64 456.7 64 384s182.2-301.1 439-301.1c249.4 0 457.1 218.6 457 301.1 0 72.6-167.1 301.1-457 301.1z m0-545.2c-220.1 0-377.5 195.8-382.1 243.4C125.5 432.3 283 628 503 628c256.4 0 397.1-197.7 400.1-243.8-3.4-51.1-179.4-244.3-400.1-244.3z"  horiz-adv-x="1024" />

    
    <glyph glyph-name="cable" unicode="&#58954;" d="M881.6 832H456c-18.5 0-33.6-15.1-33.6-33.6s15.1-33.6 33.6-33.6h425.6c6.2 0 11.2-5 11.2-11.2v-571.2H265.6v224h56c43.2 0 78.4 35.2 78.4 78.4V664c0 18.5-15.1 33.6-33.6 33.6s-33.6-15.1-33.6-33.6v-179.2c0-6.2-5-11.2-11.2-11.2h-56v280c0 18.5-15.1 33.6-33.6 33.6s-33.6-15.1-33.6-33.6v-280h-56c-6.2 0-11.2 5-11.2 11.2V664c0 18.5-15.1 33.6-33.6 33.6S64 682.5 64 664v-179.2c0-43.2 35.2-78.4 78.4-78.4h56v-392c0-43.2 35.2-78.4 78.4-78.4h604.8c43.2 0 78.4 35.2 78.4 78.4V753.6c0 43.2-35.2 78.4-78.4 78.4z m11.2-817.6c0-6.2-5-11.2-11.2-11.2H276.8c-6.2 0-11.2 5-11.2 11.2V115.2h627.2v-100.8z"  horiz-adv-x="1024" />

    
    <glyph glyph-name="hot_spot" unicode="&#58955;" d="M369.4 695.4c13.1-13.1 13.1-34.4 0-47.5-38.1-38.1-59-88.7-59-142.6s21-104.5 59-142.5c13.1-13.1 13.1-34.4 0-47.5-6.5-6.5-15.1-9.9-23.7-9.9s-17.2 3.3-23.8 9.9c-50.8 50.8-78.7 118.3-78.7 190 0 71.8 28 139.3 78.7 190.1 13.1 13.2 34.4 13.2 47.5 0z m332.6 0c50.8-50.8 78.8-118.3 78.8-190.1s-28-139.3-78.8-190c-6.5-6.5-15.2-9.9-23.7-9.9-8.6 0-17.2 3.3-23.8 9.9-13.1 13.1-13.1 34.4 0 47.5 38.1 38 59.1 88.7 59.1 142.5s-21 104.5-59.1 142.6c-13.1 13.1-13.1 34.4 0 47.5 13.1 13.2 34.4 13.2 47.5 0z m-570.8-190c0-101.7 39.6-197.3 111.6-269.3 13.1-13.1 13.1-34.4 0-47.5-6.6-6.6-15.2-9.9-23.8-9.9-8.6 0-17.2 3.3-23.7 9.9C110.6 273.2 64 385.7 64 505.4 64 625 110.6 737.5 195.2 822.2c13.1 13.1 34.4 13.1 47.5 0 13.1-13.1 13.1-34.4 0-47.5-71.9-72-111.5-167.6-111.5-269.3zM828.8 822.1C913.4 737.5 960 625 960 505.4s-46.6-232.2-131.2-316.8c-6.5-6.6-15.1-9.9-23.7-9.9s-17.2 3.3-23.8 9.9c-13.1 13.1-13.1 34.4 0 47.5 148.5 148.5 148.5 390.1 0 538.5-13.1 13.1-13.1 34.4 0 47.5 13.1 13.2 34.4 13.2 47.5 0zM545.6 422.3v-452.7c0-18.6-15-33.6-33.6-33.6s-33.6 15-33.6 33.6V422.3c-10.8 4.4-21 10.9-29.8 19.7-35 35-35 91.7 0 126.7s91.7 35 126.7 0 35-91.7 0-126.7a90.12 90.12 0 0 0-29.7-19.7z"  horiz-adv-x="1024" />

    
    <glyph glyph-name="wifi" unicode="&#58956;" d="M922 759.4c-214.7 18.7-424.8-57.7-576.3-209.2C194.2 398.7 118 188.7 136.6-26.1c0.9-10.3-2.8-20.4-10.1-27.7-5.9-5.8-13.4-9.3-21.7-10-9.3-0.9-18.4 2-25.5 8-7.2 6-11.6 14.4-12.4 23.7-20.4 235.4 63.2 465.6 229.4 631.7C446 749.3 647.8 832 858.4 832c23.2 0 46.4-1 69.7-3 9.3-0.8 17.7-5.2 23.7-12.3 6-7.1 8.9-16.2 8-25.5-0.7-8.3-4.1-15.8-10-21.6-7.3-7.3-17.4-11-27.8-10.2z m-20.3-232.9c-145.4 12.5-287.9-39-390.4-141.7-102.7-102.7-154.3-245-141.7-390.4 0.9-10.3-2.8-20.4-10.1-27.8-5.8-5.8-13.3-9.3-21.6-10-9.3-0.9-18.3 2-25.5 8-7.1 6-11.5 14.4-12.3 23.7-14.4 166.1 44.7 328.6 161.9 445.9 105.7 105.7 248.1 164.1 396.8 164.1 16.3 0 32.7-0.7 49-2.1 9.3-0.8 17.7-5.2 23.7-12.3 6-7.2 8.9-16.2 8.1-25.6-0.7-8.3-4.2-15.8-10-21.6-7.5-7.4-17.3-11.1-27.9-10.2z m-20.4-233c-76.2 6.8-150.8-20.5-204.6-74.2-53.8-53.8-80.8-128.4-74.2-204.6 0.9-10.3-2.8-20.4-10.1-27.7-5.8-5.8-13.3-9.3-21.7-10-9.3-0.8-18.3 2.1-25.5 8-7.1 6-11.5 14.4-12.3 23.7-8.4 96.9 26 191.6 94.4 260.1 61.6 61.6 144.7 95.6 231.4 95.6 9.5 0 19.1-0.4 28.7-1.2 9.3-0.8 17.7-5.2 23.7-12.3 6-7.2 8.9-16.2 8.1-25.6-0.7-8.3-4.2-15.8-10-21.6-7.5-7.4-17.3-11.1-27.9-10.2z m-22.4-163c23.9 0 47.9-9.1 66.1-27.4 36.4-36.4 36.4-95.7 0-132.1-36.5-36.5-95.7-36.4-132.1 0-36.5 36.4-36.5 95.7 0 132.1 18.1 18.3 42 27.4 66 27.4z"  horiz-adv-x="1024" />

    


  </font>
</defs>
</svg>
